<mxfile host="app.diagrams.net" modified="2020-03-22T02:50:20.706Z" agent="Mozilla/5.0 (Windows NT 10.0; Win64; x64; rv:74.0) Gecko/20100101 Firefox/74.0" etag="SekFARNGm5Wq4Tfb62BT" version="12.8.8" type="github">
  <diagram id="GYe0d-AVbHzlN-V5e-IO" name="Page-1">
    <mxGraphModel dx="983" dy="663" grid="1" gridSize="10" guides="1" tooltips="1" connect="1" arrows="1" fold="1" page="1" pageScale="1" pageWidth="850" pageHeight="1100" math="0" shadow="0">
      <root>
        <mxCell id="0" />
        <mxCell id="1" parent="0" />
      </root>
    </mxGraphModel>
  </diagram>
</mxfile>
